<?xml version="1.0" encoding="UTF-8" standalone="no"?>
<!DOCTYPE svg PUBLIC "-//W3C//DTD SVG 1.1//EN"
 "http://www.w3.org/Graphics/SVG/1.1/DTD/svg11.dtd">
<!-- Generated by graphviz version 2.43.0 (0)
 -->
<!-- Title: %3 Pages: 1 -->
<svg width="348pt" height="478pt"
 viewBox="0.00 0.00 348.00 478.00" xmlns="http://www.w3.org/2000/svg" xmlns:xlink="http://www.w3.org/1999/xlink">
<g id="graph0" class="graph" transform="scale(1 1) rotate(0) translate(4 474)">
<title>%3</title>
<polygon fill="white" stroke="transparent" points="-4,4 -4,-474 344,-474 344,4 -4,4"/>
<!-- Handle command line arguments -->
<g id="node1" class="node">
<title>Handle command line arguments</title>
<polygon fill="none" stroke="black" points="290,-470 36,-470 36,-434 290,-434 290,-470"/>
<text text-anchor="middle" x="163" y="-448.3" font-family="Times,serif" font-size="14.00">Handle command line arguments</text>
</g>
<!-- Fork -->
<g id="node2" class="node">
<title>Fork</title>
<polygon fill="none" stroke="black" points="190,-398 136,-398 136,-362 190,-362 190,-398"/>
<text text-anchor="middle" x="163" y="-376.3" font-family="Times,serif" font-size="14.00">Fork</text>
</g>
<!-- Handle command line arguments&#45;&gt;Fork -->
<g id="edge1" class="edge">
<title>Handle command line arguments&#45;&gt;Fork</title>
<path fill="none" stroke="black" d="M163,-433.7C163,-425.98 163,-416.71 163,-408.11"/>
<polygon fill="black" stroke="black" points="166.5,-408.1 163,-398.1 159.5,-408.1 166.5,-408.1"/>
</g>
<!-- Child process -->
<g id="node3" class="node">
<title>Child process</title>
<polygon fill="none" stroke="black" points="151.5,-326 38.5,-326 38.5,-290 151.5,-290 151.5,-326"/>
<text text-anchor="middle" x="95" y="-304.3" font-family="Times,serif" font-size="14.00">Child process</text>
</g>
<!-- Fork&#45;&gt;Child process -->
<g id="edge2" class="edge">
<title>Fork&#45;&gt;Child process</title>
<path fill="none" stroke="black" d="M146.19,-361.7C137.87,-353.14 127.69,-342.66 118.61,-333.3"/>
<polygon fill="black" stroke="black" points="121.09,-330.84 111.62,-326.1 116.07,-335.72 121.09,-330.84"/>
</g>
<!-- Parent process -->
<g id="node4" class="node">
<title>Parent process</title>
<polygon fill="none" stroke="black" points="294.5,-326 171.5,-326 171.5,-290 294.5,-290 294.5,-326"/>
<text text-anchor="middle" x="233" y="-304.3" font-family="Times,serif" font-size="14.00">Parent process</text>
</g>
<!-- Fork&#45;&gt;Parent process -->
<g id="edge3" class="edge">
<title>Fork&#45;&gt;Parent process</title>
<path fill="none" stroke="black" d="M180.3,-361.7C188.86,-353.14 199.34,-342.66 208.7,-333.3"/>
<polygon fill="black" stroke="black" points="211.3,-335.65 215.9,-326.1 206.35,-330.7 211.3,-335.65"/>
</g>
<!-- Redirect output -->
<g id="node5" class="node">
<title>Redirect output</title>
<polygon fill="none" stroke="black" points="156.5,-254 27.5,-254 27.5,-218 156.5,-218 156.5,-254"/>
<text text-anchor="middle" x="92" y="-232.3" font-family="Times,serif" font-size="14.00">Redirect output</text>
</g>
<!-- Child process&#45;&gt;Redirect output -->
<g id="edge4" class="edge">
<title>Child process&#45;&gt;Redirect output</title>
<path fill="none" stroke="black" d="M94.26,-289.7C93.93,-281.98 93.53,-272.71 93.16,-264.11"/>
<polygon fill="black" stroke="black" points="96.66,-263.95 92.73,-254.1 89.66,-264.25 96.66,-263.95"/>
</g>
<!-- Print progress -->
<g id="node7" class="node">
<title>Print progress</title>
<polygon fill="none" stroke="black" points="313,-254 193,-254 193,-218 313,-218 313,-254"/>
<text text-anchor="middle" x="253" y="-232.3" font-family="Times,serif" font-size="14.00">Print progress</text>
</g>
<!-- Parent process&#45;&gt;Print progress -->
<g id="edge6" class="edge">
<title>Parent process&#45;&gt;Print progress</title>
<path fill="none" stroke="black" d="M237.94,-289.7C240.17,-281.9 242.85,-272.51 245.33,-263.83"/>
<polygon fill="black" stroke="black" points="248.73,-264.68 248.11,-254.1 242,-262.76 248.73,-264.68"/>
</g>
<!-- Execute command -->
<g id="node6" class="node">
<title>Execute command</title>
<polygon fill="none" stroke="black" points="148,-181 0,-181 0,-145 148,-145 148,-181"/>
<text text-anchor="middle" x="74" y="-159.3" font-family="Times,serif" font-size="14.00">Execute command</text>
</g>
<!-- Redirect output&#45;&gt;Execute command -->
<g id="edge5" class="edge">
<title>Redirect output&#45;&gt;Execute command</title>
<path fill="none" stroke="black" d="M87.64,-217.81C85.59,-209.7 83.09,-199.84 80.79,-190.78"/>
<polygon fill="black" stroke="black" points="84.17,-189.86 78.32,-181.03 77.38,-191.58 84.17,-189.86"/>
</g>
<!-- Check if child finished\nor timeout reached -->
<g id="node8" class="node">
<title>Check if child finished\nor timeout reached</title>
<polygon fill="none" stroke="black" points="340,-182 166,-182 166,-144 340,-144 340,-182"/>
<text text-anchor="middle" x="253" y="-166.8" font-family="Times,serif" font-size="14.00">Check if child finished</text>
<text text-anchor="middle" x="253" y="-151.8" font-family="Times,serif" font-size="14.00">or timeout reached</text>
</g>
<!-- Print progress&#45;&gt;Check if child finished\nor timeout reached -->
<g id="edge7" class="edge">
<title>Print progress&#45;&gt;Check if child finished\nor timeout reached</title>
<path fill="none" stroke="black" d="M247.12,-217.81C246.32,-210.11 246.07,-200.82 246.38,-192.15"/>
<polygon fill="black" stroke="black" points="249.88,-192.23 247.04,-182.02 242.9,-191.77 249.88,-192.23"/>
</g>
<!-- Check if child finished\nor timeout reached&#45;&gt;Print progress -->
<g id="edge8" class="edge">
<title>Check if child finished\nor timeout reached&#45;&gt;Print progress</title>
<path fill="none" stroke="black" d="M258.96,-182.02C259.73,-189.83 259.94,-199.15 259.58,-207.78"/>
<polygon fill="black" stroke="black" points="256.09,-207.59 258.88,-217.81 263.07,-208.08 256.09,-207.59"/>
</g>
<!-- Print resource usage -->
<g id="node9" class="node">
<title>Print resource usage</title>
<polygon fill="none" stroke="black" points="336,-108 170,-108 170,-72 336,-72 336,-108"/>
<text text-anchor="middle" x="253" y="-86.3" font-family="Times,serif" font-size="14.00">Print resource usage</text>
</g>
<!-- Check if child finished\nor timeout reached&#45;&gt;Print resource usage -->
<g id="edge9" class="edge">
<title>Check if child finished\nor timeout reached&#45;&gt;Print resource usage</title>
<path fill="none" stroke="black" d="M253,-143.72C253,-135.97 253,-126.79 253,-118.27"/>
<polygon fill="black" stroke="black" points="256.5,-118 253,-108 249.5,-118 256.5,-118"/>
</g>
<!-- Exit -->
<g id="node10" class="node">
<title>Exit</title>
<polygon fill="none" stroke="black" points="280,-36 226,-36 226,0 280,0 280,-36"/>
<text text-anchor="middle" x="253" y="-14.3" font-family="Times,serif" font-size="14.00">Exit</text>
</g>
<!-- Print resource usage&#45;&gt;Exit -->
<g id="edge10" class="edge">
<title>Print resource usage&#45;&gt;Exit</title>
<path fill="none" stroke="black" d="M253,-71.7C253,-63.98 253,-54.71 253,-46.11"/>
<polygon fill="black" stroke="black" points="256.5,-46.1 253,-36.1 249.5,-46.1 256.5,-46.1"/>
</g>
</g>
</svg>
